<?xml version="1.0" standalone="no"?>
<!DOCTYPE svg PUBLIC "-//W3C//DTD SVG 20010904//EN"
 "http://www.w3.org/TR/2001/REC-SVG-20010904/DTD/svg10.dtd">
<svg version="1.0" xmlns="http://www.w3.org/2000/svg"
 width="512.000000pt" height="512.000000pt" viewBox="0 0 512.000000 512.000000"
 preserveAspectRatio="xMidYMid meet">
<metadata>
Created by potrace 1.14, written by Peter Selinger 2001-2017
</metadata>
<g transform="translate(0.000000,512.000000) scale(0.100000,-0.100000)"
fill="#000000" stroke="none">
<path d="M2203 5110 c-46 -19 -58 -55 -59 -180 -2 -134 -2 -131 -11 -128 -46
11 -352 -106 -511 -196 l-64 -36 -332 0 c-329 0 -333 0 -366 -22 -21 -14 -37
-36 -42 -56 -5 -18 -8 -122 -6 -231 3 -223 1 -216 85 -263 l52 -29 -40 -72
c-106 -191 -188 -414 -215 -582 -13 -83 0 -78 -197 -79 l-177 -1 -27 -28 -28
-27 0 -224 c0 -206 2 -226 19 -245 16 -18 66 -50 151 -96 11 -6 61 -35 110
-65 56 -33 106 -55 131 -58 l42 -4 18 -67 c36 -135 141 -371 205 -462 30 -43
28 -51 -18 -54 -58 -3 -90 -27 -103 -73 -5 -22 -9 -123 -7 -234 2 -176 4 -198
21 -217 32 -35 362 -221 393 -221 15 0 69 23 118 51 165 94 180 102 197 113
14 8 32 3 82 -24 118 -63 113 -47 60 -185 -25 -66 -51 -133 -58 -150 -8 -16
-69 -173 -137 -347 l-123 -318 -70 0 c-119 -1 -176 -45 -184 -142 -3 -47 0
-58 27 -95 21 -29 42 -45 68 -52 26 -7 468 -11 1363 -11 1271 0 1327 1 1360
19 49 26 72 62 78 120 4 44 1 57 -22 92 -34 51 -77 69 -164 69 l-68 0 -178
457 c-98 252 -179 464 -180 472 0 7 6 17 14 22 90 53 140 79 148 79 6 0 43
-19 84 -43 203 -120 224 -130 262 -124 37 6 354 188 383 219 16 18 18 42 21
213 2 119 -1 210 -8 234 -13 49 -44 72 -100 76 -23 1 -43 4 -45 6 -2 2 14 33
36 69 41 67 119 222 119 237 0 4 7 21 15 36 12 24 47 126 74 217 6 20 13 24
35 22 25 -3 54 8 136 55 203 117 249 146 266 164 17 19 19 40 21 238 l3 217
-29 34 -28 34 -179 2 -179 2 -7 28 c-4 16 -19 79 -33 140 -40 171 -126 385
-207 513 l-28 45 59 37 c43 27 62 46 70 71 17 52 13 405 -5 440 -29 56 -42 58
-403 58 l-329 0 -64 36 c-87 50 -196 99 -308 140 -52 19 -95 34 -95 33 0 -3
-91 22 -104 29 -11 6 -14 36 -16 124 -1 126 -13 160 -61 178 -32 12 -681 12
-711 0z m185 -652 l22 -11 0 -569 c0 -312 -3 -568 -6 -568 -4 0 -16 10 -28 23
-18 18 -204 194 -331 313 -17 16 -100 94 -184 174 -84 80 -171 161 -193 181
-37 34 -39 39 -30 70 5 19 8 69 7 112 -1 59 3 81 15 91 38 35 240 141 335 176
70 26 119 42 190 58 l80 19 50 -29 c28 -16 60 -34 73 -40z m682 11 c109 -37
260 -109 346 -165 l58 -39 1 -90 c1 -50 5 -100 9 -112 7 -22 -27 -59 -204
-223 -19 -17 -76 -71 -126 -118 -76 -74 -364 -346 -398 -377 -49 -45 -46 -86
-46 531 l0 569 72 41 72 41 61 -13 c33 -8 103 -28 155 -45z m-1696 -601 c12
-12 297 -282 356 -338 80 -76 325 -306 384 -362 l68 -65 -543 1 -544 1 -1 22
c-2 39 -24 79 -54 97 -16 9 -33 17 -37 17 -28 0 25 202 94 358 66 147 111 221
137 221 12 0 44 14 71 30 58 35 53 33 69 18z m2426 -10 c19 -12 53 -27 75 -33
38 -12 43 -18 106 -141 59 -117 119 -271 134 -349 14 -71 17 -106 9 -104 -44
8 -94 -38 -94 -87 0 -23 -5 -34 -17 -38 -10 -2 -256 -4 -547 -4 l-529 1 65 61
c36 34 130 122 209 197 79 75 160 151 179 169 63 59 343 325 354 337 15 16 16
16 56 -9z m-1139 -682 c178 -85 192 -328 26 -433 -32 -20 -59 -27 -112 -31
-62 -4 -78 -1 -122 21 -90 46 -136 121 -136 222 0 63 21 119 63 163 26 28 89
68 116 74 39 10 130 1 165 -16z m-476 -378 c5 -4 -136 -150 -645 -671 l-205
-209 -60 81 c-116 159 -194 315 -252 506 -13 44 -26 96 -29 116 -5 32 -2 37
31 55 43 23 66 55 67 94 1 18 7 30 16 32 26 5 1072 1 1077 -4z m1810 3 c27 -1
31 -5 33 -32 3 -41 24 -70 67 -93 33 -18 35 -22 30 -55 -30 -194 -173 -498
-307 -658 l-36 -43 -289 296 c-413 423 -573 588 -573 588 0 1 1037 -2 1075 -3z
m-1860 -527 c-9 -22 -77 -196 -152 -389 -74 -192 -137 -353 -139 -357 -7 -11
-177 90 -195 114 -4 7 -5 131 0 160 0 5 39 47 86 95 47 49 159 163 248 255 89
92 163 165 165 163 2 -1 -4 -20 -13 -41z m1190 -316 l151 -153 -1 -84 c-1 -61
-5 -85 -15 -92 -128 -80 -176 -107 -181 -101 -6 6 -276 696 -305 777 -4 11 40
-28 97 -87 57 -59 172 -176 254 -260z m-915 -208 l0 -391 -52 7 c-53 6 -229
41 -233 46 -3 3 278 728 282 728 2 0 3 -176 3 -390z m449 20 c153 -392 148
-362 68 -375 -18 -3 -39 -8 -47 -10 -16 -5 -46 -10 -122 -20 l-48 -7 1 393 c0
217 3 390 5 384 2 -5 67 -170 143 -365z m-784 -656 c17 -4 36 -8 43 -10 24 -4
25 -11 27 -134 1 -114 3 -123 26 -145 44 -44 355 -215 390 -215 29 0 184 82
356 188 51 32 56 48 59 177 1 55 2 105 3 112 1 11 22 19 101 38 30 7 13 45
200 -435 78 -201 144 -371 147 -378 4 -9 -173 -12 -867 -12 -694 0 -871 3
-867 13 3 6 57 145 120 307 208 534 198 511 216 506 9 -2 30 -8 46 -12z"/>
</g>
</svg>
